<?xml version="1.0" encoding="utf-8" ?><svg xmlns="http://www.w3.org/2000/svg" viewBox="148 257 266 228"><path fill="#7F22CE" d="M346.199 328.383C363.502 326.543 382.024 332.003 393.275 345.771C410.279 366.577 407.145 397.62 407.158 422.913L407.384 479.938L350.816 479.892C351.256 454.039 353.268 422.887 348.412 397.522C344.751 378.395 325.267 375.644 315.43 394.361C310.062 411.144 311.697 460.912 311.773 479.934L256.541 479.919C256.088 453.4 257.34 424.704 256.221 398.44C285.159 385.787 280.472 358.435 280.107 332.106C290.555 331.737 301.948 331.909 312.469 331.879L312.404 348.735C313.076 347.788 313.758 346.847 314.449 345.913C323.521 333.685 331.74 330.502 346.199 328.383Z"/><path fill="#7F22CE" d="M232.73 262.162C242.263 260.953 256.26 262.186 265.981 262.969C265.618 279.551 265.904 297.329 265.876 314.003C265.085 313.866 264.291 313.751 263.495 313.656C243.315 311.231 233.978 312.337 231.655 334.293C242.792 333.952 254.778 334.094 265.982 334.022C265.724 344.02 266.823 354.08 265.718 364.076C263.561 383.596 247.277 383.05 231.83 382.927C232.427 414.656 231.97 448.011 231.975 479.895L223.453 479.892L173.594 479.987L173.41 382.755C166.996 382.933 160.191 382.856 153.743 382.894L153.437 334.351L173.22 334.588C175.313 295.023 190.193 266.649 232.73 262.162Z"/></svg>