<?xml version="1.0" encoding="utf-8" ?><svg xmlns="http://www.w3.org/2000/svg" viewBox="518 322 706 124"><path fill="#FCFCFB" d="M565.976 327.901C570.276 327.644 575.766 327.767 580.155 327.761L580.154 347.907C573.031 347.651 564.629 347.124 558.755 351.914C558.798 352.842 558.627 353.84 559.183 354.243C563.447 357.335 574.025 356.37 579.097 356.223C579.142 362.723 579.127 369.224 579.051 375.724C572.806 375.905 566.254 375.818 559.981 375.827C560.155 382.282 560.35 435.642 559.288 437.409L557.32 437.542C549.939 437.434 542.354 437.603 534.957 437.682L535.218 375.995L523.133 375.978L523.142 356.054L535.201 356.093C535.39 331.917 543.196 328.171 565.976 327.901Z"/><path fill="#FCFCFB" d="M617.288 353.471C641.396 351.586 662.444 369.656 664.239 393.776C666.033 417.896 647.89 438.882 623.769 440.587C599.775 442.283 578.928 424.251 577.143 400.258C575.358 376.265 593.308 355.346 617.288 353.471ZM624.605 416.822C636.411 412.789 642.546 401.942 638.416 389.881C636.753 385.014 633.217 381.012 628.592 378.761C625.274 377.144 621.444 376.669 617.785 376.873C605.662 380.66 599.225 391.616 603.331 403.912C604.919 408.775 608.393 412.796 612.973 415.074C616.89 417.017 620.326 417.102 624.605 416.822Z"/><path fill="#FCFCFB" d="M704.102 354.649C728.446 351.399 744.752 364.744 747.227 388.828L723.419 388.836C717.443 375.121 705.042 370.744 695.225 385.017C689.804 392.898 693.427 412.499 703.026 416.55C713.724 421.065 719.157 414.584 723.306 405.678L740.414 405.671L747.951 405.702C742.996 437.904 711.48 448.924 684.522 432.875C665.119 421.325 663.567 387.55 675.799 370.369C682.932 360.349 692.271 356.749 704.102 354.649Z"/><path fill="#FCFCFB" d="M755.849 356.261C764.102 356.133 772.64 356.247 780.918 356.262C780.821 368.431 777.899 405.706 786.26 414.039C788.682 416.451 791.903 417.476 795.275 417.415C798.903 417.348 802.23 416.131 804.751 413.46C812.672 405.066 809.723 368.818 809.547 356.314L834.317 356.303C834.229 370.513 834.217 384.723 834.282 398.933L834.788 437.69L810.004 437.61C811.44 430.008 812.368 425.37 812.62 417.64C810.367 423.199 808.013 428.467 803.805 432.806C794.304 442.603 773.464 442.621 764.057 432.681C761.206 429.664 758.304 424.68 757.578 420.526C754.012 400.127 755.436 376.898 755.849 356.261Z"/><path fill="#FCFCFB" d="M871.401 354.661C887.787 353.537 904.776 356.059 912.792 372.564C914.346 375.763 915.465 379.39 914.241 382.914C911.084 385.097 896.508 384.108 891.8 384.029C889.124 378.8 885.748 374.475 879.546 373.709C874.23 373.052 868.094 375.692 867.486 381.58C867.943 382.929 868.297 384.346 869.745 384.878C882.887 389.89 910.294 390.146 916.486 405.605C924.456 425.501 900.925 437.384 886.092 439.625C861.072 442.521 846.14 435.039 840.706 409.914C848.971 409.879 857.237 409.933 865.501 410.075C866.704 412.233 867.838 414.082 869.552 415.895C872.278 418.728 876.015 420.367 879.945 420.452C884.646 420.542 891.009 417.899 891.048 412.446C886.191 403.389 845.591 408.87 843.367 387.025C841.152 365.265 851.875 358.077 871.401 354.661Z"/><path fill="#7F22CE" d="M964.678 354.564C966.407 354.427 968.14 354.359 969.874 354.361C990.947 354.231 1000.02 365.871 1000.32 386.326C1000.56 403.492 1000.38 420.624 1000.25 437.789C992.525 437.58 983.508 437.816 975.697 437.854C975.57 427.813 975.999 417.867 975.844 407.653C975.527 398.484 977.353 380.127 965.941 376.787C958.26 374.539 952.584 379.269 949.536 385.78C947.331 394.811 948.306 426.678 948.284 437.782C940.197 437.6 931.642 437.781 923.52 437.819C923.318 408.195 924.426 385.429 920.129 355.815L945.869 355.756L944.952 374.22C949.49 362.14 951.441 357.654 964.678 354.564Z"/><path fill="#7F22CE" d="M1042.29 354.098C1066.08 349.925 1088.73 365.904 1092.78 389.722C1096.83 413.541 1080.74 436.112 1056.91 440.046C1033.25 443.951 1010.87 427.998 1006.85 404.348C1002.83 380.698 1018.66 358.241 1042.29 354.098ZM1052.68 416.914C1058.77 414.905 1062.76 412.681 1065.84 406.654C1068.51 401.288 1068.89 395.062 1066.88 389.411C1063.84 380.807 1056.35 375.977 1047.24 376.776C1021.39 385.358 1028.6 417.371 1052.68 416.914Z"/><path fill="#7F22CE" d="M1085.89 355.72L1110.84 355.921C1116.88 372.312 1121.69 390.677 1127.35 407.381C1131.77 390.109 1137.02 373.215 1141.69 355.992C1148.48 355.985 1155.26 356.03 1162.05 356.125L1178.54 407.136C1183.85 391.2 1188.75 372.483 1193.39 356.12C1200.99 355.736 1210.86 355.934 1218.64 355.886C1216.49 363.912 1213.22 372.633 1210.45 380.541C1203.65 399.492 1197.27 418.592 1191.32 437.827C1182.8 437.774 1174.28 437.79 1165.76 437.877C1163.32 423.556 1156.88 400.129 1152.48 386.357C1147.99 403.428 1143.72 420.554 1139.65 437.73C1131.29 437.61 1122.67 437.832 1114.29 437.942C1105.11 411.572 1094.19 382.083 1085.89 355.72Z"/></svg>